<?xml version="1.0" encoding="UTF-8"?>
<!--Generator: Apple Native CoreSVG 360-->
<!DOCTYPE svg
PUBLIC "-//W3C//DTD SVG 1.1//EN"
       "http://www.w3.org/Graphics/SVG/1.1/DTD/svg11.dtd">
<svg version="1.1" xmlns="http://www.w3.org/2000/svg" xmlns:xlink="http://www.w3.org/1999/xlink" viewBox="0 0 99.6094 99.6582">
 <g>
  <rect height="99.6582" opacity="0" width="99.6094" x="0" y="0"/>
  <path d="M49.8047 99.6094C77.2949 99.6094 99.6094 77.2949 99.6094 49.8047C99.6094 22.3145 77.2949 0 49.8047 0C22.3145 0 0 22.3145 0 49.8047C0 77.2949 22.3145 99.6094 49.8047 99.6094ZM49.8047 91.3086C26.8555 91.3086 8.30078 72.7539 8.30078 49.8047C8.30078 26.8555 26.8555 8.30078 49.8047 8.30078C72.7539 8.30078 91.3086 26.8555 91.3086 49.8047C91.3086 72.7539 72.7539 91.3086 49.8047 91.3086Z" fill="black" fill-opacity="0.85"/>
  <path d="M49.7559 83.8867C68.6035 83.8867 83.8379 68.6523 83.8379 49.8047C83.8379 30.957 68.6035 15.7227 49.7559 15.7227C30.9082 15.7227 15.6738 30.957 15.6738 49.8047C15.6738 68.6523 30.9082 83.8867 49.7559 83.8867Z" fill="black" fill-opacity="0.85"/>
 </g>
</svg>
